<svg width="698" height="800" viewBox="0 0 698 800" fill="none" xmlns="http://www.w3.org/2000/svg">
    <path
        d="M587.898 400.021L696.066 212.7C698.521 208.452 698.521 203.215 696.066 198.967C693.613 194.716 689.079 192.1 684.173 192.1H467.805L360.816 6.86524C358.365 2.61631 353.831 0 348.926 0H348.924C344.02 0 339.488 2.61631 337.033 6.86352L229.994 192.1H13.8275C8.92104 192.1 4.38541 194.718 1.93391 198.967C-0.519311 203.215 -0.519311 208.452 1.93391 212.7L110.087 399.993L1.93391 587.3C-0.519311 591.55 -0.519311 596.785 1.93391 601.033C4.38713 605.282 8.92104 607.9 13.8275 607.9H230.145L337.106 793.133C339.56 797.382 344.094 800 349 800C353.906 800 358.44 797.384 360.894 793.133L467.857 607.9H684.174C689.081 607.9 693.616 605.282 696.07 601.033C698.523 596.783 698.521 591.548 696.068 587.3L587.898 400.021ZM660.384 219.566L526.657 451.147C526.61 451.221 526.571 451.298 526.526 451.373L485.721 522.038H450.006L594.912 271.097C597.367 266.848 597.367 261.612 594.912 257.363C592.459 253.112 587.925 250.496 583.019 250.496H501.534L483.67 219.567L660.384 219.566ZM538.334 485.852L559.23 522.038H517.439L538.334 485.852ZM279.712 522.038L209.258 400.027L279.771 277.962H418.288L488.758 400L418.288 522.038H279.712ZM538.317 314.179L517.398 277.962H559.228L538.317 314.179ZM348.923 41.188L481.093 270.022C481.439 270.764 481.845 271.47 482.312 272.132L522.459 341.641L504.619 372.537L439.105 259.082C438.629 257.906 437.992 256.815 437.227 255.828L360.897 123.643C358.445 119.396 353.913 116.778 349.01 116.776H349.005C344.104 116.776 339.572 119.389 337.117 123.633L297.51 192.098H261.724L348.923 41.188ZM368.705 192.098H329.237L348.988 157.955L368.705 192.098ZM37.6163 219.566H384.566L402.425 250.494H114.981C110.075 250.494 105.539 253.112 103.088 257.361C100.634 261.61 100.634 266.846 103.088 271.095L143.802 341.602L125.944 372.529L37.6163 219.566ZM159.661 314.137L138.772 277.962H180.548L159.661 314.137ZM37.6163 580.434L137.627 407.231C137.668 407.164 137.704 407.095 137.743 407.028L212.267 277.964H248.049L181.699 392.822C181.683 392.848 181.67 392.876 181.654 392.901L103.089 528.905C100.634 533.154 100.634 538.39 103.088 542.639C105.541 546.889 110.075 549.507 114.983 549.507H196.425L214.284 580.436H37.6163V580.434ZM159.673 485.863L180.562 522.038H138.777L159.673 485.863ZM349 758.802L217.124 530.426C216.698 529.42 216.143 528.484 215.501 527.617L175.534 458.405L193.395 427.487L258.897 540.92C259.373 542.096 260.009 543.185 260.775 544.173L292.227 598.64C292.806 600.321 293.699 601.851 294.84 603.164L337.106 676.359C339.56 680.608 344.094 683.226 349 683.226C353.906 683.226 358.44 680.609 360.894 676.359L400.423 607.904H436.138L349 758.802ZM329.295 607.902H368.705L349 642.024L329.295 607.902ZM313.434 580.434L295.575 549.506H426.164C426.178 549.506 426.19 549.507 426.203 549.507C426.217 549.507 426.229 549.506 426.243 549.506H493.597C493.611 549.506 493.623 549.507 493.637 549.507C493.651 549.507 493.663 549.506 493.676 549.506H583.021C587.927 549.506 592.463 546.888 594.914 542.639C597.367 538.39 597.367 533.154 594.914 528.905L554.195 458.39L572.04 427.485L660.382 580.434H313.434Z"
        fill="black" />
</svg>